<svg xmlns="http://www.w3.org/2000/svg" width="102.718" height="102.718" viewBox="0 0 102.718 102.718">
  <path id="tindog-logo-white" d="M92,50a13.874,13.874,0,0,0,5.2-13.8A14.025,14.025,0,0,0,69.7,36,2.773,2.773,0,0,1,67,38.2H33A2.773,2.773,0,0,1,30.3,36a14.025,14.025,0,0,0-27.5.2A13.874,13.874,0,0,0,8,50,13.874,13.874,0,0,0,2.8,63.8a14.025,14.025,0,0,0,27.5.2A2.773,2.773,0,0,1,33,61.8H67A2.773,2.773,0,0,1,69.7,64,14.031,14.031,0,1,0,92,50Z" transform="translate(-19.352 51.359) rotate(-45)" fill="#fff" fill-rule="evenodd"/>
</svg>
