<svg xmlns="http://www.w3.org/2000/svg" xmlns:xlink="http://www.w3.org/1999/xlink" width="119" height="119" viewBox="0 0 119 119">
  <defs>
    <linearGradient id="linear-gradient" x1="0.5" x2="0.5" y2="1" gradientUnits="objectBoundingBox">
      <stop offset="0" stop-color="#fff"/>
      <stop offset="1" stop-color="#e9e9e9"/>
    </linearGradient>
  </defs>
  <g id="tindog-logo-white-3" transform="translate(-1265 -33)">
    <path id="Subtraction_11" data-name="Subtraction 11" d="M-112.5,119a59.127,59.127,0,0,1-23.16-4.676,59.3,59.3,0,0,1-18.913-12.751A59.3,59.3,0,0,1-167.324,82.66,59.127,59.127,0,0,1-172,59.5a59.127,59.127,0,0,1,4.676-23.16,59.3,59.3,0,0,1,12.751-18.913A59.3,59.3,0,0,1-135.66,4.676,59.127,59.127,0,0,1-112.5,0,59.127,59.127,0,0,1-89.34,4.676,59.3,59.3,0,0,1-70.427,17.427,59.3,59.3,0,0,1-57.676,36.34,59.127,59.127,0,0,1-53,59.5a59.127,59.127,0,0,1-4.676,23.16,59.3,59.3,0,0,1-12.751,18.913A59.3,59.3,0,0,1-89.34,114.324,59.127,59.127,0,0,1-112.5,119Zm-29.2-30.143h0a13.793,13.793,0,0,0,6.081,13.433,13.777,13.777,0,0,0,7.847,2.4,13.889,13.889,0,0,0,7.427-2.114,14.061,14.061,0,0,0,6.284-8.961,14.073,14.073,0,0,0-1.971-10.627,2.785,2.785,0,0,1,.354-3.464l24.042-24.042a2.713,2.713,0,0,1,1.932-.8,2.893,2.893,0,0,1,1.533.447,13.874,13.874,0,0,0,7.689,2.314,14.087,14.087,0,0,0,11.9-6.628,14,14,0,0,0-.283-15.273,13.783,13.783,0,0,0-11.6-6.2,14.613,14.613,0,0,0-1.831.116,13.8,13.8,0,0,0-6.081-13.435,13.773,13.773,0,0,0-7.846-2.4,13.891,13.891,0,0,0-7.428,2.114,14.06,14.06,0,0,0-6.284,8.96,14.072,14.072,0,0,0,1.971,10.626,2.786,2.786,0,0,1-.354,3.465l-24.042,24.042a2.715,2.715,0,0,1-1.932.8,2.9,2.9,0,0,1-1.533-.447,13.873,13.873,0,0,0-7.69-2.315,14.086,14.086,0,0,0-11.9,6.628,14,14,0,0,0,.283,15.274,13.783,13.783,0,0,0,11.6,6.2,14.615,14.615,0,0,0,1.829-.116Z" transform="translate(1437 33)" fill="url(#linear-gradient)"/>
  </g>
</svg>
